P3
3 2
255
122 122 122 33 33 33 126 126 126
 48  48  48 93 93 93  76  76  76